<?xml version="1.0" encoding="utf-8"?>
<!-- Generator: Adobe Illustrator 16.0.3, SVG Export Plug-In . SVG Version: 6.00 Build 0)  -->
<!DOCTYPE svg PUBLIC "-//W3C//DTD SVG 1.1//EN" "http://www.w3.org/Graphics/SVG/1.1/DTD/svg11.dtd">
<svg version="1.1" id="圖層_1" xmlns="http://www.w3.org/2000/svg" xmlns:xlink="http://www.w3.org/1999/xlink" x="0px" y="0px"
	 width="360.696px" height="205.61px" viewBox="0 0 360.696 205.61" enable-background="new 0 0 360.696 205.61"
	 xml:space="preserve">
<rect x="4.238" y="138.403" fill="#FAF7BE" width="353.094" height="13.5"/>
<g>
	<path fill="none" stroke="#FAF7BE" stroke-width="30" stroke-miterlimit="10" d="M109.081,93.291
		c-9.006,14.348-24.969,23.887-43.16,23.887C37.798,117.178,15,94.38,15,66.257s22.798-50.92,50.92-50.92
		c17.577,0,33.074,8.906,42.225,22.451"/>
	<path fill="none" stroke="#FAF7BE" stroke-width="18" stroke-miterlimit="10" d="M248.853,22.75
		c-1.137,1.811-3.15,3.014-5.447,3.014c-3.548,0-6.425-2.877-6.425-6.426s2.877-6.425,6.425-6.425c2.218,0,4.173,1.124,5.329,2.833"
		/>
	<line fill="none" stroke="#FAF7BE" stroke-width="30" stroke-miterlimit="10" x1="148.302" y1="0" x2="148.302" y2="130.983"/>
	
		<line fill="none" stroke="#FAF7BE" stroke-width="30" stroke-miterlimit="10" x1="242.917" y1="38.958" x2="242.917" y2="130.983"/>
	<path fill="none" stroke="#FAF7BE" stroke-width="30" stroke-linejoin="round" stroke-miterlimit="10" d="M201.221,129.756V69.534
		c0,0-2.477-30.85-52.919-5.253"/>
	<line fill="none" stroke="#FAF7BE" stroke-width="30" stroke-miterlimit="10" x1="285.438" y1="0" x2="285.438" y2="130.983"/>
	<path fill="none" stroke="#FAF7BE" stroke-width="30" stroke-linejoin="round" stroke-miterlimit="10" d="M338.356,129.756V69.534
		c0,0-2.477-30.85-52.918-5.253"/>
</g>
<g>
	<path fill="#FAF7BE" d="M8.916,195.507L4.33,176.298H8.3l2.896,13.194l3.512-13.194h4.612l3.367,13.418l2.948-13.418h3.905
		l-4.665,19.209h-4.114l-3.826-14.36l-3.813,14.36H8.916z"/>
	<path fill="#FAF7BE" d="M44.432,191.079l3.669,0.616c-0.472,1.345-1.217,2.369-2.234,3.072c-1.018,0.703-2.291,1.055-3.82,1.055
		c-2.419,0-4.21-0.79-5.372-2.372c-0.917-1.266-1.376-2.864-1.376-4.795c0-2.307,0.603-4.112,1.808-5.418
		c1.206-1.307,2.73-1.959,4.573-1.959c2.07,0,3.704,0.684,4.9,2.051s1.769,3.461,1.716,6.282h-9.224
		c0.026,1.092,0.323,1.941,0.891,2.549s1.275,0.91,2.123,0.91c0.576,0,1.061-0.157,1.454-0.472S44.231,191.778,44.432,191.079z
		 M44.642,187.357c-0.026-1.065-0.302-1.875-0.826-2.431c-0.524-0.555-1.162-0.832-1.913-0.832c-0.804,0-1.467,0.293-1.992,0.878
		c-0.524,0.586-0.782,1.381-0.773,2.385H44.642z"/>
	<path fill="#FAF7BE" d="M56.508,195.507v-19.209h3.682v6.918c1.136-1.292,2.481-1.938,4.036-1.938c1.695,0,3.097,0.613,4.206,1.841
		s1.664,2.989,1.664,5.287c0,2.376-0.565,4.206-1.697,5.49s-2.505,1.926-4.121,1.926c-0.795,0-1.579-0.199-2.352-0.596
		c-0.773-0.397-1.439-0.985-1.998-1.763v2.044H56.508z M60.164,188.249c0,1.441,0.227,2.507,0.681,3.197
		c0.638,0.979,1.485,1.467,2.542,1.467c0.813,0,1.504-0.347,2.077-1.041s0.858-1.789,0.858-3.282c0-1.59-0.288-2.736-0.865-3.439
		s-1.315-1.056-2.214-1.056c-0.882,0-1.616,0.344-2.201,1.029C60.457,185.809,60.164,186.851,60.164,188.249z"/>
	<path fill="#FAF7BE" d="M77.127,191.538l3.695-0.563c0.158,0.716,0.476,1.26,0.957,1.631s1.153,0.557,2.018,0.557
		c0.952,0,1.668-0.175,2.149-0.523c0.323-0.245,0.485-0.572,0.485-0.983c0-0.279-0.087-0.511-0.262-0.694
		c-0.184-0.175-0.594-0.336-1.231-0.484c-2.97-0.655-4.853-1.254-5.647-1.795c-1.101-0.752-1.651-1.796-1.651-3.132
		c0-1.206,0.476-2.219,1.428-3.04c0.952-0.821,2.428-1.231,4.429-1.231c1.904,0,3.319,0.31,4.245,0.93
		c0.926,0.621,1.563,1.538,1.913,2.752l-3.472,0.642c-0.148-0.541-0.43-0.956-0.845-1.244s-1.007-0.433-1.775-0.433
		c-0.97,0-1.664,0.136-2.083,0.406c-0.28,0.192-0.419,0.441-0.419,0.747c0,0.262,0.122,0.484,0.367,0.668
		c0.332,0.245,1.479,0.59,3.439,1.035s3.33,0.991,4.108,1.638c0.769,0.655,1.153,1.568,1.153,2.738c0,1.276-0.533,2.372-1.599,3.289
		c-1.065,0.917-2.642,1.376-4.73,1.376c-1.896,0-3.396-0.384-4.501-1.153C78.19,193.9,77.468,192.856,77.127,191.538z"/>
	<path fill="#FAF7BE" d="M98.715,179.706v-3.407h3.682v3.407H98.715z M98.715,195.507v-13.915h3.682v13.915H98.715z"/>
	<path fill="#FAF7BE" d="M117.919,181.592v2.935h-2.516v5.608c0,1.136,0.024,1.797,0.072,1.985c0.048,0.188,0.157,0.343,0.327,0.465
		c0.17,0.122,0.378,0.184,0.623,0.184c0.341,0,0.834-0.118,1.48-0.354l0.314,2.856c-0.856,0.367-1.826,0.551-2.909,0.551
		c-0.664,0-1.262-0.111-1.795-0.334c-0.533-0.223-0.924-0.511-1.173-0.865c-0.249-0.354-0.421-0.832-0.518-1.435
		c-0.079-0.428-0.118-1.293-0.118-2.595v-6.066h-1.69v-2.935h1.69v-2.765l3.695-2.149v4.914H117.919z"/>
	<path fill="#FAF7BE" d="M133.899,191.079l3.669,0.616c-0.472,1.345-1.217,2.369-2.234,3.072c-1.018,0.703-2.291,1.055-3.82,1.055
		c-2.419,0-4.21-0.79-5.372-2.372c-0.917-1.266-1.376-2.864-1.376-4.795c0-2.307,0.603-4.112,1.808-5.418
		c1.206-1.307,2.73-1.959,4.573-1.959c2.07,0,3.704,0.684,4.9,2.051s1.769,3.461,1.716,6.282h-9.224
		c0.026,1.092,0.323,1.941,0.891,2.549s1.275,0.91,2.123,0.91c0.576,0,1.061-0.157,1.454-0.472S133.698,191.778,133.899,191.079z
		 M134.109,187.357c-0.026-1.065-0.302-1.875-0.826-2.431c-0.524-0.555-1.162-0.832-1.913-0.832c-0.804,0-1.467,0.293-1.992,0.878
		c-0.524,0.586-0.782,1.381-0.773,2.385H134.109z"/>
	<path fill="#FAF7BE" d="M171.271,188.445l3.761,1.192c-0.577,2.097-1.535,3.653-2.876,4.671c-1.341,1.018-3.042,1.526-5.104,1.526
		c-2.551,0-4.647-0.871-6.29-2.613c-1.643-1.743-2.463-4.126-2.463-7.148c0-3.196,0.826-5.68,2.477-7.448
		c1.651-1.77,3.821-2.653,6.512-2.653c2.35,0,4.258,0.694,5.726,2.083c0.873,0.821,1.528,2,1.965,3.538l-3.839,0.917
		c-0.227-0.996-0.701-1.782-1.421-2.358c-0.721-0.577-1.597-0.865-2.627-0.865c-1.424,0-2.579,0.512-3.466,1.533
		c-0.887,1.022-1.33,2.678-1.33,4.966c0,2.429,0.437,4.158,1.31,5.189c0.874,1.03,2.009,1.546,3.407,1.546
		c1.031,0,1.917-0.328,2.66-0.982C170.416,190.882,170.948,189.851,171.271,188.445z"/>
	<path fill="#FAF7BE" d="M182.849,188.353c0-1.223,0.302-2.406,0.904-3.551s1.457-2.018,2.562-2.621
		c1.105-0.603,2.339-0.903,3.702-0.903c2.104,0,3.83,0.684,5.175,2.051c1.346,1.367,2.019,3.094,2.019,5.182
		c0,2.105-0.68,3.851-2.038,5.234c-1.358,1.385-3.068,2.077-5.13,2.077c-1.275,0-2.491-0.288-3.649-0.865
		c-1.157-0.576-2.038-1.421-2.64-2.535C183.151,191.308,182.849,189.952,182.849,188.353z M186.623,188.549
		c0,1.381,0.328,2.438,0.983,3.171c0.655,0.734,1.463,1.101,2.424,1.101s1.767-0.366,2.417-1.101
		c0.651-0.733,0.977-1.799,0.977-3.196c0-1.363-0.325-2.411-0.977-3.146c-0.65-0.733-1.456-1.101-2.417-1.101
		s-1.769,0.367-2.424,1.101C186.951,186.113,186.623,187.169,186.623,188.549z"/>
	<path fill="#FAF7BE" d="M205.459,195.507v-19.209h3.683v19.209H205.459z"/>
	<path fill="#FAF7BE" d="M218.282,195.507v-19.209h3.683v19.209H218.282z"/>
	<path fill="#FAF7BE" d="M239.163,191.079l3.669,0.616c-0.472,1.345-1.217,2.369-2.234,3.072s-2.291,1.055-3.819,1.055
		c-2.42,0-4.211-0.79-5.372-2.372c-0.917-1.266-1.376-2.864-1.376-4.795c0-2.307,0.603-4.112,1.809-5.418
		c1.205-1.307,2.729-1.959,4.572-1.959c2.07,0,3.704,0.684,4.901,2.051c1.196,1.367,1.769,3.461,1.716,6.282h-9.225
		c0.026,1.092,0.323,1.941,0.892,2.549c0.567,0.607,1.275,0.91,2.122,0.91c0.577,0,1.062-0.157,1.455-0.472
		C238.665,192.284,238.961,191.778,239.163,191.079z M239.373,187.357c-0.026-1.065-0.302-1.875-0.826-2.431
		c-0.523-0.555-1.161-0.832-1.912-0.832c-0.805,0-1.468,0.293-1.992,0.878c-0.524,0.586-0.782,1.381-0.773,2.385H239.373z"/>
	<path fill="#FAF7BE" d="M263.53,185.707l-3.63,0.655c-0.122-0.726-0.399-1.271-0.832-1.639c-0.433-0.366-0.993-0.55-1.684-0.55
		c-0.917,0-1.648,0.316-2.194,0.95c-0.546,0.633-0.819,1.692-0.819,3.177c0,1.651,0.277,2.817,0.832,3.499s1.3,1.021,2.234,1.021
		c0.698,0,1.271-0.198,1.716-0.596c0.446-0.397,0.761-1.081,0.944-2.051l3.616,0.616c-0.376,1.659-1.097,2.913-2.162,3.761
		c-1.066,0.847-2.494,1.271-4.285,1.271c-2.035,0-3.657-0.642-4.867-1.926s-1.815-3.062-1.815-5.333
		c0-2.298,0.607-4.086,1.822-5.366c1.214-1.279,2.855-1.919,4.926-1.919c1.695,0,3.042,0.364,4.043,1.094
		C262.375,183.101,263.093,184.212,263.53,185.707z"/>
	<path fill="#FAF7BE" d="M278.069,181.592v2.935h-2.517v5.608c0,1.136,0.024,1.797,0.072,1.985c0.048,0.188,0.157,0.343,0.328,0.465
		c0.17,0.122,0.378,0.184,0.622,0.184c0.341,0,0.834-0.118,1.48-0.354l0.314,2.856c-0.855,0.367-1.825,0.551-2.908,0.551
		c-0.664,0-1.263-0.111-1.796-0.334c-0.532-0.223-0.924-0.511-1.172-0.865c-0.249-0.354-0.422-0.832-0.518-1.435
		c-0.079-0.428-0.118-1.293-0.118-2.595v-6.066h-1.69v-2.935h1.69v-2.765l3.694-2.149v4.914H278.069z"/>
	<path fill="#FAF7BE" d="M285.99,179.706v-3.407h3.683v3.407H285.99z M285.99,195.507v-13.915h3.683v13.915H285.99z"/>
	<path fill="#FAF7BE" d="M297.961,188.353c0-1.223,0.302-2.406,0.904-3.551s1.456-2.018,2.562-2.621
		c1.105-0.603,2.339-0.903,3.702-0.903c2.104,0,3.83,0.684,5.175,2.051c1.346,1.367,2.019,3.094,2.019,5.182
		c0,2.105-0.68,3.851-2.038,5.234c-1.358,1.385-3.068,2.077-5.13,2.077c-1.275,0-2.491-0.288-3.648-0.865
		c-1.158-0.576-2.038-1.421-2.641-2.535C298.263,191.308,297.961,189.952,297.961,188.353z M301.735,188.549
		c0,1.381,0.328,2.438,0.983,3.171c0.655,0.734,1.463,1.101,2.424,1.101s1.767-0.366,2.417-1.101
		c0.651-0.733,0.977-1.799,0.977-3.196c0-1.363-0.325-2.411-0.977-3.146c-0.65-0.733-1.456-1.101-2.417-1.101
		s-1.769,0.367-2.424,1.101C302.063,186.113,301.735,187.169,301.735,188.549z"/>
	<path fill="#FAF7BE" d="M333.23,195.507h-3.683v-7.102c0-1.503-0.078-2.475-0.235-2.916c-0.157-0.44-0.413-0.783-0.767-1.028
		c-0.354-0.244-0.779-0.367-1.277-0.367c-0.638,0-1.21,0.175-1.717,0.524s-0.854,0.813-1.042,1.389
		c-0.188,0.577-0.281,1.643-0.281,3.197v6.303h-3.682v-13.915h3.419v2.044c1.215-1.572,2.743-2.358,4.587-2.358
		c0.812,0,1.555,0.146,2.228,0.438c0.672,0.293,1.181,0.666,1.526,1.12c0.345,0.455,0.585,0.97,0.721,1.547
		c0.135,0.576,0.203,1.401,0.203,2.477V195.507z"/>
	<path fill="#FAF7BE" d="M341.034,191.538l3.695-0.563c0.157,0.716,0.476,1.26,0.956,1.631s1.153,0.557,2.019,0.557
		c0.951,0,1.668-0.175,2.148-0.523c0.323-0.245,0.484-0.572,0.484-0.983c0-0.279-0.087-0.511-0.262-0.694
		c-0.184-0.175-0.594-0.336-1.231-0.484c-2.971-0.655-4.853-1.254-5.647-1.795c-1.101-0.752-1.651-1.796-1.651-3.132
		c0-1.206,0.477-2.219,1.429-3.04s2.428-1.231,4.429-1.231c1.904,0,3.319,0.31,4.245,0.93c0.926,0.621,1.563,1.538,1.913,2.752
		l-3.473,0.642c-0.148-0.541-0.43-0.956-0.845-1.244s-1.007-0.433-1.775-0.433c-0.97,0-1.664,0.136-2.083,0.406
		c-0.28,0.192-0.42,0.441-0.42,0.747c0,0.262,0.122,0.484,0.367,0.668c0.332,0.245,1.479,0.59,3.439,1.035s3.33,0.991,4.107,1.638
		c0.769,0.655,1.153,1.568,1.153,2.738c0,1.276-0.533,2.372-1.599,3.289s-2.643,1.376-4.729,1.376c-1.896,0-3.396-0.384-4.501-1.153
		C342.097,193.9,341.375,192.856,341.034,191.538z"/>
</g>
</svg>
