<?xml version="1.0" encoding="utf-8"?>
<!-- Generator: Adobe Illustrator 16.0.3, SVG Export Plug-In . SVG Version: 6.00 Build 0)  -->
<!DOCTYPE svg PUBLIC "-//W3C//DTD SVG 1.1//EN" "http://www.w3.org/Graphics/SVG/1.1/DTD/svg11.dtd">
<svg version="1.1" id="文" xmlns="http://www.w3.org/2000/svg" xmlns:xlink="http://www.w3.org/1999/xlink" x="0px" y="0px"
	 width="26.988px" height="22.146px" viewBox="0 0 26.988 22.146" enable-background="new 0 0 26.988 22.146" xml:space="preserve">
<path fill="#FAF7BE" d="M14.254,0.268c-0.418-0.357-1.102-0.357-1.52,0L0.254,11.231c-0.418,0.358-0.31,0.916,0.24,0.916h3
	c0.55,0,1-0.08,1,0.471v8c0,0.55,0.45,1.529,1,1.529h4c0.55,0,1-0.979,1-1.529v-4c0-0.551,0.45-0.471,1-0.471h4
	c0.55,0,1-0.08,1,0.471v4c0,0.55,0.45,1.529,1,1.529h4c0.55,0,1-0.979,1-1.529v-8c0-0.551,0.45-0.471,1-0.471h3
	c0.55,0,0.658-0.558,0.24-0.916L14.254,0.268z"/>
</svg>
